General

Complete name                    : C:\UPs\G-Force.2009.BluRay.1080p-Lorinsion\G-Force.mkv
Format                           : Matroska
File size                        : 2.82 GiB
Duration                         : 1h 28mn
Overall bit rate                 : 4 576 Kbps
Movie name                       : G-Force2
Encoded date                     : UTC 2010-10-22 02:50:17
Writing application              : mkvmerge v4.3.0 ('Escape from the Island') built on Sep  5 2010 10:30:51
Writing library                  : libebml v1.0.0 + libmatroska v1.0.0

Video
ID                               : 1
Format                           : AVC
Format/Info                      : Advanced Video Codec
Format profile                   : High@L4.0
Format settings, CABAC           : Yes
Format settings, ReFrames        : 3 frames
Format settings, GOP             : M=4, N=48
Codec ID                         : V_MPEG4/ISO/AVC
Duration                         : 1h 28mn
Bit rate mode                    : Variable
Bit rate                         : 4 101 Kbps
Maximum bit rate                 : 25.0 Mbps
Width                            : 1 920 pixels
Height                           : 800 pixels
Display aspect ratio             : 2.40:1
Frame rate                       : 23.976 fps
Color space                      : YUV
Chroma subsampling               : 4:2:0
Bit depth                        : 8 bits
Scan type                        : Progressive
Bits/(Pixel*Frame)               : 0.111
Stream size                      : 2.53 GiB (90%)
Writing library                  : x264 core 105 r1732 2b04482

Audio
ID                               : 2
Format                           : AC-3
Format/Info                      : Audio Coding 3
Mode extension                   : CM (complete main)
Codec ID                         : A_AC3
Duration                         : 1h 28mn
Bit rate mode                    : Constant
Bit rate                         : 384 Kbps
Channel(s)                       : 6 channels
Channel positions                : Front: L C R, Side: L R, LFE
Sampling rate                    : 48.0 KHz
Bit depth                        : 16 bits
Compression mode                 : Lossy
Stream size                      : 242 MiB (8%)
Language                         : English


Screens:
 
http://img822.imageshack.us/i/vlcsnap2011011223h22m48.png/
 
http://img404.imageshack.us/i/vlcsnap2011011223h25m19.png/
 
http://img24.imageshack.us/i/vlcsnap2011011223h20m17.png/
 
http://img641.imageshack.us/i/vlcsnap2011011223h21m48.png/
 
http://img19.imageshack.us/i/vlcsnap2011011223h22m29.png/
 
http://img440.imageshack.us/i/vlcsnap2011011223h22m34.png/